<svg width="20" height="20" viewBox="0 0 20 20" fill="none" xmlns="http://www.w3.org/2000/svg">
<path fill-rule="evenodd" clip-rule="evenodd" d="M1.464 1.464C0 2.93 0 5.286 0 10C0 14.714 0 17.071 1.464 18.535C2.93 20 5.286 20 10 20C14.714 20 17.071 20 18.535 18.535C20 17.072 20 14.714 20 10C20 5.286 20 2.929 18.535 1.464C17.072 0 14.714 0 10 0C5.286 0 2.929 0 1.464 1.464ZM4.424 7.52C4.55134 7.36729 4.73411 7.27139 4.93213 7.25338C5.13015 7.23538 5.32721 7.29675 5.48 7.424L5.757 7.654C6.362 8.158 6.877 8.587 7.233 8.982C7.612 9.402 7.907 9.883 7.907 10.5C7.907 11.117 7.612 11.599 7.233 12.018C6.877 12.413 6.362 12.842 5.757 13.346L5.48 13.576C5.40473 13.6418 5.31705 13.692 5.22213 13.7234C5.1272 13.7549 5.02694 13.7671 4.92724 13.7592C4.82754 13.7513 4.73042 13.7236 4.6416 13.6777C4.55277 13.6317 4.47403 13.5685 4.41001 13.4917C4.34598 13.4148 4.29797 13.326 4.2688 13.2303C4.23962 13.1347 4.22987 13.0341 4.24012 12.9347C4.25037 12.8352 4.28041 12.7388 4.32847 12.6511C4.37654 12.5634 4.44166 12.4862 4.52 12.424L4.754 12.229C5.413 11.679 5.844 11.319 6.12 11.013C6.382 10.723 6.407 10.586 6.407 10.5C6.407 10.414 6.382 10.278 6.12 9.987C5.843 9.681 5.413 9.32 4.754 8.771L4.52 8.576C4.36729 8.44866 4.27139 8.26589 4.25338 8.06787C4.23538 7.86985 4.29675 7.67279 4.424 7.52ZM15.75 13C15.75 13.1989 15.671 13.3897 15.5303 13.5303C15.3897 13.671 15.1989 13.75 15 13.75H10C9.80109 13.75 9.61032 13.671 9.46967 13.5303C9.32902 13.3897 9.25 13.1989 9.25 13C9.25 12.8011 9.32902 12.6103 9.46967 12.4697C9.61032 12.329 9.80109 12.25 10 12.25H15C15.1989 12.25 15.3897 12.329 15.5303 12.4697C15.671 12.6103 15.75 12.8011 15.75 13Z" fill="#EC6D0C"/>
</svg>
