<svg width="25" height="24" viewBox="0 0 25 24" fill="none" xmlns="http://www.w3.org/2000/svg">
<path d="M22.2222 0C22.9589 0 23.6655 0.280951 24.1864 0.781048C24.7073 1.28115 25 1.95942 25 2.66667V21.3333C25 22.0406 24.7073 22.7189 24.1864 23.219C23.6655 23.719 22.9589 24 22.2222 24H2.77778C2.04107 24 1.33453 23.719 0.813592 23.219C0.292658 22.7189 0 22.0406 0 21.3333V2.66667C0 1.95942 0.292658 1.28115 0.813592 0.781048C1.33453 0.280951 2.04107 0 2.77778 0H22.2222ZM21.5278 20.6667V13.6C21.5278 12.4472 21.0507 11.3416 20.2016 10.5264C19.3525 9.71128 18.2008 9.25333 17 9.25333C15.8194 9.25333 14.4444 9.94667 13.7778 10.9867V9.50667H9.90278V20.6667H13.7778V14.0933C13.7778 13.0667 14.6389 12.2267 15.7083 12.2267C16.224 12.2267 16.7186 12.4233 17.0833 12.7734C17.4479 13.1235 17.6528 13.5983 17.6528 14.0933V20.6667H21.5278ZM5.38889 7.41333C6.00773 7.41333 6.60122 7.17733 7.0388 6.75725C7.47639 6.33717 7.72222 5.76742 7.72222 5.17333C7.72222 3.93333 6.68056 2.92 5.38889 2.92C4.76637 2.92 4.16934 3.1574 3.72915 3.57999C3.28896 4.00257 3.04167 4.57571 3.04167 5.17333C3.04167 6.41333 4.09722 7.41333 5.38889 7.41333ZM7.31944 20.6667V9.50667H3.47222V20.6667H7.31944Z" fill="#1F1B48"/>
</svg>
